<mxfile host="app.diagrams.net" modified="2022-03-09T02:45:59.056Z" agent="5.0 (Macintosh; Intel Mac OS X 10_15_7) AppleWebKit/537.36 (KHTML, like Gecko) Chrome/98.0.4758.109 Safari/537.36" etag="D8HVwPIrszNgNnIbpFBR" version="17.0.0" type="github">
  <diagram id="1YfZbRbmRew4kgiTGoDV" name="Page-1">
    <mxGraphModel dx="2276" dy="708" grid="1" gridSize="10" guides="1" tooltips="1" connect="1" arrows="1" fold="1" page="1" pageScale="1" pageWidth="850" pageHeight="1100" math="0" shadow="0">
      <root>
        <mxCell id="0" />
        <mxCell id="1" parent="0" />
        <mxCell id="DF2wHjeAQsjV_GsE0Nr8-1" value="验证uuid" style="rounded=0;whiteSpace=wrap;html=1;" vertex="1" parent="1">
          <mxGeometry x="160" y="180" width="120" height="60" as="geometry" />
        </mxCell>
        <mxCell id="DF2wHjeAQsjV_GsE0Nr8-2" value="" style="rounded=0;whiteSpace=wrap;html=1;" vertex="1" parent="1">
          <mxGeometry x="160" y="400" width="120" height="60" as="geometry" />
        </mxCell>
        <mxCell id="DF2wHjeAQsjV_GsE0Nr8-3" value="Sqlite" style="text;html=1;strokeColor=none;fillColor=none;align=center;verticalAlign=middle;whiteSpace=wrap;rounded=0;" vertex="1" parent="1">
          <mxGeometry x="190" y="415" width="60" height="30" as="geometry" />
        </mxCell>
        <mxCell id="DF2wHjeAQsjV_GsE0Nr8-9" style="edgeStyle=orthogonalEdgeStyle;rounded=0;orthogonalLoop=1;jettySize=auto;html=1;entryX=0;entryY=0.5;entryDx=0;entryDy=0;" edge="1" parent="1" source="DF2wHjeAQsjV_GsE0Nr8-4" target="DF2wHjeAQsjV_GsE0Nr8-1">
          <mxGeometry relative="1" as="geometry" />
        </mxCell>
        <mxCell id="DF2wHjeAQsjV_GsE0Nr8-4" value="业务方上传&lt;br&gt;" style="shape=umlActor;verticalLabelPosition=bottom;verticalAlign=top;html=1;outlineConnect=0;" vertex="1" parent="1">
          <mxGeometry x="-90" y="290" width="30" height="60" as="geometry" />
        </mxCell>
      </root>
    </mxGraphModel>
  </diagram>
</mxfile>
